<svg xmlns="http://www.w3.org/2000/svg" xmlns:xlink="http://www.w3.org/1999/xlink" width="256" height="342" preserveAspectRatio="xMidYMid" version="1.1" viewBox="0 0 256 342"><title>Power BI</title><defs><path id="power-bi-path-1" d="M142.222222,14.2222222 C142.222222,6.36750222 148.589867,0 156.444444,0 L241.777778,0 C249.632356,0 256,6.36750222 256,14.2222222 L256,327.111111 C256,334.965689 249.632356,341.333333 241.777778,341.333333 L14.2222222,341.333333 C6.36764444,341.333333 0,334.965689 0,327.111111 L0,184.888889 C0,177.034311 6.36764444,170.666667 14.2222222,170.666667 L71.1114667,170.666667 L71.1114667,99.5555556 C71.1114667,91.7009778 77.4791111,85.3333333 85.3336889,85.3333333 L142.222222,85.3333333 L142.222222,14.2222222 Z"/><linearGradient id="power-bi-linearGradient-1" x1="42.593%" x2="57.245%" y1="0%" y2="93.174%"><stop offset="0%" stop-color="#E6AD10"/><stop offset="100%" stop-color="#C87E0E"/></linearGradient><linearGradient id="power-bi-linearGradient-2" x1="40.122%" x2="62.028%" y1="0%" y2="95.592%"><stop offset="0%" stop-color="#F6D751"/><stop offset="100%" stop-color="#E6AD10"/></linearGradient><linearGradient id="power-bi-linearGradient-3" x1="27.774%" x2="55.012%" y1="0%" y2="96.828%"><stop offset="0%" stop-color="#F9E589"/><stop offset="100%" stop-color="#F6D751"/></linearGradient></defs><g><mask id="mask-2" fill="#fff"><use xlink:href="#power-bi-path-1"/></mask><polygon fill="url(#power-bi-linearGradient-1)" points="256 0 256 341.333 142.222 341.333 142.222 0" mask="url(#mask-2)"/><path fill="#000" fill-opacity=".2" d="M184.888889,100.977778 L184.888889,342.755556 L71.1111111,342.755556 L71.1111111,86.7555556 L170.666667,86.7555556 C178.521244,86.7555556 184.888889,93.1232 184.888889,100.977778 Z" mask="url(#mask-2)"/><path fill="#000" fill-opacity=".18" d="M184.888889,106.666667 L184.888889,348.444444 L71.1111111,348.444444 L71.1111111,92.4444444 L170.666667,92.4444444 C178.521244,92.4444444 184.888889,98.8120889 184.888889,106.666667 Z" mask="url(#mask-2)"/><path fill="url(#power-bi-linearGradient-2)" d="M184.888889,99.5555556 L184.888889,341.333333 L71.1111111,341.333333 L71.1111111,85.3333333 L170.666667,85.3333333 C178.521244,85.3333333 184.888889,91.7009778 184.888889,99.5555556 Z" mask="url(#mask-2)"/><path fill="url(#power-bi-linearGradient-3)" d="M0,170.666667 L0,341.333333 L113.777778,341.333333 L113.777778,184.888889 C113.777778,177.034311 107.410133,170.666667 99.5555556,170.666667 L0,170.666667 Z" mask="url(#mask-2)"/></g></svg>