<svg xmlns="http://www.w3.org/2000/svg" xmlns:xlink="http://www.w3.org/1999/xlink" width="256" height="408" preserveAspectRatio="xMidYMid" version="1.1" viewBox="0 0 256 408"><title>pandas</title><g><path fill="#130754" d="M71.4775204,24.0721657 L115.982392,24.0721657 L115.982392,116.481201 L71.4775204,116.481201 L71.4775204,24.0721657 Z M71.4775204,213.896803 L115.982392,213.896803 L115.982392,306.305838 L71.4775204,306.305838 L71.4775204,213.896803 Z M0,100.057444 L44.5048712,100.057444 L44.5048712,407.23158 L0,407.23158 L0,100.057444 Z M141.495562,290.140723 L186.000433,290.140723 L186.000433,382.549758 L141.495562,382.549758 L141.495562,290.140723 Z M141.495562,100.16829 L186.000433,100.16829 L186.000433,192.577326 L141.495562,192.577326 L141.495562,100.16829 Z M211.495129,0 L256,0 L256,307.174136 L211.495129,307.174136 L211.495129,0 Z"/><rect width="44.505" height="43.6" x="71.478" y="143.454" fill="#FFCA00"/><rect width="44.505" height="43.6" x="141.496" y="219.55" fill="#E70488"/></g></svg>